<svg height='100px' width='100px'  fill="#000000" xmlns="http://www.w3.org/2000/svg" xmlns:xlink="http://www.w3.org/1999/xlink" version="1.1" x="0px" y="0px" viewBox="0 0 100 100" style="enable-background:new 0 0 100 100;" xml:space="preserve"><path d="M89.7268677,43.6200562l-1.4672852-12.4719849C88.9985352,30.7136841,89.5,29.9190674,89.5,29  c0-1.3807373-1.1192627-2.5-2.5-2.5c-0.3432617,0-0.670166,0.0696411-0.9678955,0.1948242l-7.7979736-7.4370117  c0.0970459-0.2667236,0.1585693-0.5507812,0.1585693-0.8510742c0-1.3807373-1.1192627-2.5-2.5-2.5  c-0.7150269,0-1.3557739,0.3039551-1.8114624,0.7852173l-9.5982666-3.4544678  C64.3944092,11.9372559,63.3227539,10.9066772,62,10.9066772c-1.048645,0-1.9434204,0.6470947-2.3145752,1.562561  L49.0751953,12.756958C48.6262817,12.0899048,47.864563,11.6508179,47,11.6508179c-1.3807373,0-2.5,1.1193237-2.5,2.5  c0,0.0178223,0.0048828,0.0342407,0.005249,0.052002l-9.0997925,5.7304688C35.0048218,19.6602783,34.5213623,19.5,34,19.5  c-1.3807373,0-2.5,1.1192627-2.5,2.5c0,0.0896606,0.0171509,0.1745605,0.0263672,0.2618408l-10.2166138,5.8380737  C20.8741455,27.7310181,20.3179321,27.5,19.7023926,27.5c-1.3806763,0-2.5,1.1192627-2.5,2.5  c0,0.5413208,0.1762085,1.0390015,0.4685669,1.4482422L12.2070923,41.520874C12.1376343,41.5150757,12.0709229,41.5,12,41.5  c-1.3807373,0-2.5,1.1192627-2.5,2.5c0,1.3806763,1.1192627,2.5,2.5,2.5c0.1881714,0,0.3699341-0.0244751,0.5462036-0.0639038  l8.2989502,11.3167725C20.6314087,58.1212158,20.5,58.543457,20.5,59c0,1.3806763,1.1192627,2.5,2.5,2.5  c1.0245972,0,1.902832-0.6178589,2.2889404-1.5h15.4221191C41.097168,60.8821411,41.9754028,61.5,43,61.5  c0.269165,0,0.5234985-0.0535278,0.7664185-0.1322632L64.7346191,84.956543C64.5875854,85.2749634,64.5,85.6262207,64.5,86  c0,1.3806763,1.1192627,2.5,2.5,2.5s2.5-1.1193237,2.5-2.5c0-1.0246582-0.6177368-1.9028931-1.5-2.2889404V70.2889404  C68.8822632,69.902832,69.5,69.0245972,69.5,68c0-0.1344604-0.019104-0.263855-0.0395508-0.3925781l10.1541138-6.5276489  C80.0112915,61.3446045,80.4872437,61.5,81,61.5c1.3807373,0,2.5-1.1193237,2.5-2.5  c0-0.5303955-0.1675415-1.0202026-0.4492188-1.4248047l5.6060181-9.1098022C88.7700195,48.4810791,88.8824463,48.5,89,48.5  c1.3807373,0,2.5-1.1193237,2.5-2.5C91.5,44.8739014,90.7505493,43.9329224,89.7268677,43.6200562z M87.2043457,44.2660522  l-13.218811-4.9098511c-0.0040894-0.0708618-0.0112915-0.1407471-0.0211792-0.2099609l11.71698-8.0302734  c0.1824951,0.1140137,0.3817749,0.1997681,0.5917969,0.2639771l1.4672852,12.4719849  C87.5438232,43.9675293,87.3617554,44.1030273,87.2043457,44.2660522z M65.2092285,66.2601318l-19.7229004-7.3959351  c-0.0058594-0.1068726-0.0130615-0.2133789-0.0318604-0.3162231l12.8150024-8.6630859  c0.3443604,0.2182617,0.7455444,0.348938,1.1765747,0.3760986l5.8291626,15.935791  C65.2530518,66.2179565,65.2305908,66.2381592,65.2092285,66.2601318z M37.8704834,45.6433105  c0.0823364-0.093689,0.161499-0.1893921,0.229248-0.2946777l18.8479004,3.0159912l-12.6146851,8.5271606  C43.9464111,56.6468506,43.4914551,56.5,43,56.5c-0.0206299,0-0.0397339,0.0055542-0.0602417,0.0060425L37.8704834,45.6433105z   M35.5686035,23.9320679l17.9509277,6.2618408c0.0078735,0.1009521,0.0108032,0.2033691,0.0303345,0.3005981l-16.253479,11.3774414  c-0.1581421-0.0965576-0.3279419-0.1726074-0.5066528-0.2324219l-1.5873413-17.4604492  C35.3323975,24.1071167,35.4541016,24.0251465,35.5686035,23.9320679z M74.4231567,20.4205322  c0.008667,0.0063477,0.0159912,0.0142212,0.0247803,0.0205078l-3.4594116,16.6121216  c-0.3357544,0.0698853-0.6450195,0.2089844-0.916626,0.3988037L58.4658813,30.338562C58.4811401,30.2268066,58.5,30.1159668,58.5,30  c0-0.0969238-0.0177612-0.1888428-0.0285034-0.2828979L74.4231567,20.4205322z M54.7036133,32.1280518  c0.2353516,0.1437378,0.4925537,0.2546997,0.7706299,0.3143311l2.6936035,13.2919312  c-0.2644043,0.1860962-0.4896851,0.4215698-0.664978,0.6939087l-18.9061279-3.0253296L54.7036133,32.1280518z   M60.9213257,45.6608276c-0.2409668-0.1504517-0.5064087-0.2650146-0.7930298-0.3264771l-2.6914062-13.2809448l11.597229,7.1080322  C69.0188599,39.2731934,69,39.3840332,69,39.5c0,0.1984863,0.0289307,0.3891602,0.0726318,0.5742798L60.9213257,45.6608276z   M62.0554199,47.3079834l8.2260132-5.6376953C70.6433716,41.8740845,71.0550537,42,71.5,42  c0.0343628,0,0.0662231-0.0087891,0.1002197-0.0101318l7.1658325,14.7088623l-16.6807861-8.7492065  c0.0040283-0.0581665,0.017395-0.1135864,0.017395-0.1727295C62.1026611,47.6162109,62.0843506,47.460144,62.0554199,47.3079834z   M84.5472412,29.46875l-11.5916138,7.9443359l3.4484253-16.5594482c0.1580811-0.0328369,0.310791-0.0805664,0.4564209-0.1417236  l7.7980957,7.4371338C84.5615234,28.4157715,84.5,28.6997681,84.5,29C84.5,29.1605835,84.5183105,29.3165894,84.5472412,29.46875z   M73.4212036,18.6895752l-15.5712891,9.0748901l4.1864014-11.8614502c0.7001953-0.0101929,1.3273926-0.3086548,1.7750854-0.7814941  l9.5983887,3.4545288C73.4123535,18.6142578,73.4168701,18.6518555,73.4212036,18.6895752z M60.1898193,15.1230469  l-4.374939,12.3956299c-0.0159912,0.0012207-0.0317993,0.0032349-0.0477295,0.0047607l-6.6763916-12.0075073  c0.1516113-0.2316895,0.2613525-0.491333,0.3294678-0.7678223l10.3242188-0.2799683  C59.8586426,14.710144,60.0078735,14.9312134,60.1898193,15.1230469z M47,16.6508179  c0.140625,0,0.2761841-0.019104,0.4104614-0.0413818l6.4394531,11.5813599L36.4865112,22.133667  C36.4889526,22.088501,36.5,22.0457764,36.5,22c0-0.1264648-0.019104-0.2478027-0.0372314-0.3692627l8.8999023-5.6045532  C45.8021851,16.4102173,46.3704834,16.6508179,47,16.6508179z M33.2102661,24.3604736l1.5673828,17.2412109L22.1394043,30.5431519  C22.1783447,30.3677979,22.2023926,30.1870728,22.2023926,30c0-0.0346069-0.0087891-0.0667725-0.0101929-0.1010742  l10.3222046-5.8983765C32.7237549,24.156311,32.9576416,24.2759399,33.2102661,24.3604736z M19.7023926,32.5  c0.4552002,0,0.8760986-0.1307983,1.2437134-0.3433228L33.338501,43H14.2889404  c-0.0836792-0.1912842-0.196106-0.364563-0.3227539-0.5272827l5.4265747-10.0039062  C19.4953613,32.4816284,19.5963135,32.5,19.7023926,32.5z M14.2889404,45h19.4221191  c0.0107422,0.0245361,0.0265503,0.0460815,0.0380859,0.0701904L23.7366943,56.6230469C23.5023804,56.550354,23.2582397,56.5,23,56.5  c-0.1881714,0-0.3699341,0.0244751-0.5462036,0.0639038l-8.2989502-11.3167725  C14.2018433,45.1661377,14.2510986,45.0864258,14.2889404,45z M25.2508545,57.9298096l10.0124512-11.5528564  C35.4976196,46.449646,35.7417603,46.5,36,46.5c0.0206299,0,0.0397339-0.0055542,0.0602417-0.0060425l5.0692749,10.8627319  C40.9603882,57.5490112,40.8151245,57.762146,40.7110596,58H25.2889404  C25.2781982,57.9754028,25.2623291,57.9539185,25.2508545,57.9298096z M64.5137329,68.1359863  C64.5665894,69.1008301,65.1578369,69.9204102,66,70.2889404v13.0809937L46.4315796,61.3550415L64.5137329,68.1359863z   M67.1564941,65.5157471l-5.7246094-15.6498413l17.0855103,8.9614868C78.5133667,58.885498,78.5,58.9408569,78.5,59  c0,0.1344604,0.019104,0.263855,0.0395508,0.3925781L68.385437,65.9202271  C68.0301514,65.6831665,67.6085205,65.5442505,67.1564941,65.5157471z M81,56.5  c-0.0343628,0-0.0662231,0.0087891-0.1002197,0.0101318L73.4932861,41.307373l13.0211792,4.8364258  c0.0274658,0.4742432,0.1792603,0.9140015,0.4347534,1.2810059l-5.6060181,9.1098022C81.2299805,56.5189209,81.1175537,56.5,81,56.5  z"></path></svg>